<svg xmlns="http://www.w3.org/2000/svg" viewBox="0 0 64 64">
  <symbol id="grid" viewBox="0 0 64 64"><g fill="#2F7A70"><rect x="7" y="7" width="14" height="14" rx="3"/><rect x="25" y="7" width="14" height="14" rx="3"/><rect x="43" y="7" width="14" height="14" rx="3"/><rect x="7" y="25" width="14" height="14" rx="3"/><rect x="25" y="25" width="14" height="14" rx="3"/><rect x="43" y="25" width="14" height="14" rx="3"/><rect x="7" y="43" width="14" height="14" rx="3"/><rect x="25" y="43" width="14" height="14" rx="3"/><rect x="43" y="43" width="14" height="14" rx="3"/></g></symbol>
  <symbol id="grid-settings" viewBox="0 0 64 64"><g fill="#20252B"><rect x="5" y="5" width="16" height="16" rx="3"/><rect x="24" y="5" width="16" height="16" rx="3"/><rect x="43" y="5" width="16" height="16" rx="3"/><rect x="5" y="24" width="16" height="16" rx="3"/><rect x="24" y="24" width="16" height="16" rx="3"/><rect x="43" y="24" width="16" height="16" rx="3"/><rect x="5" y="43" width="16" height="16" rx="3"/><rect x="24" y="43" width="16" height="16" rx="3"/></g><path d="M50 43l2 3 4-1 2 4-3 3 1 4-4 2-3-3-4 1-2-4 3-3-1-4z" fill="#20252B"/><circle cx="50" cy="51" r="3" fill="#FFF5DE"/></symbol>
  <symbol id="magnet" viewBox="0 0 64 64"><path d="M14 9h14v25a5 5 0 0 0 10 0V9h14v25a19 19 0 0 1-38 0z" fill="#A982E8"/><path d="M14 9h14v9H14zm24 0h14v9H38z" fill="#DED0F8"/></symbol>
  <symbol id="triangle" viewBox="0 0 64 64"><path d="M8 50V14a5 5 0 0 1 8-4l40 40a5 5 0 0 1-4 8H16a8 8 0 0 1-8-8zm13-2h18L21 30z" fill="#A982E8" fill-rule="evenodd"/></symbol>
  <symbol id="bulb" viewBox="0 0 64 64"><path d="M32 7a20 20 0 0 0-13 35c3 3 5 6 5 10h16c0-4 2-7 5-10A20 20 0 0 0 32 7z" fill="#BFE4D9"/><path d="M25 52h14v5a7 7 0 0 1-14 0z" fill="#A982E8"/><path d="M32 17a11 11 0 0 0-8 18" fill="none" stroke="#FFF5DE" stroke-width="5" stroke-linecap="round"/><g stroke="#BFE4D9" stroke-width="4" stroke-linecap="round"><path d="M32 1v3M8 12l3 3M56 12l-3 3M4 35h4M60 35h-4"/></g></symbol>
  <symbol id="eye" viewBox="0 0 64 64"><path d="M4 32c8-13 18-20 28-20s20 7 28 20c-8 13-18 20-28 20S12 45 4 32z" fill="#DED5FA"/><circle cx="32" cy="32" r="13" fill="#A982E8"/><circle cx="32" cy="32" r="7" fill="#8C61D6"/><circle cx="38" cy="25" r="5" fill="#FFF5DE"/></symbol>
  <symbol id="undo" viewBox="0 0 64 64"><path d="M24 10 7 27l17 15V31c24-3 31 8 29 25 11-22-2-41-29-39z" fill="#2F7A70"/></symbol>
  <symbol id="redo" viewBox="0 0 64 64"><path d="m40 10 17 17-17 15V31C16 28 9 39 11 56 0 34 13 15 40 17z" fill="#2F7A70"/></symbol>
  <symbol id="home" viewBox="0 0 64 64"><path d="M7 29 32 7l25 22v25a6 6 0 0 1-6 6H13a6 6 0 0 1-6-6z" fill="#A982E8"/><path d="M26 60V37a6 6 0 0 1 12 0v23" fill="#FFF5DE"/></symbol>
  <symbol id="mail" viewBox="0 0 64 64"><rect x="5" y="14" width="54" height="38" rx="5" fill="#A982E8"/><path d="M7 17 32 38 57 17" fill="none" stroke="#DED5FA" stroke-width="8" stroke-linecap="round" stroke-linejoin="round"/><path d="m9 49 13-13m33 13L42 36" stroke="#DED5FA" stroke-width="5" stroke-linecap="round"/></symbol>
  <symbol id="person" viewBox="0 0 64 64"><circle cx="32" cy="19" r="13" fill="#A982E8"/><path d="M6 58c0-16 10-26 26-26s26 10 26 26z" fill="#A982E8"/></symbol>
  <symbol id="settings" viewBox="0 0 64 64"><path d="M28 3h8l3 8 7 3 8-4 6 7-5 8 2 7 8 4-2 9-9 1-4 6 2 9-8 4-6-7h-8l-6 7-8-4 2-9-4-6-9-1-2-9 8-4 2-7-5-8 6-7 8 4 7-3z" fill="#BFE4D9"/><circle cx="32" cy="34" r="10" fill="#FFF5DE"/></symbol>
  <symbol id="shop" viewBox="0 0 64 64"><path d="M9 19h46l-4 36H13z" fill="#9DCCB8"/><path d="M7 15h50l3 15c-1 9-12 10-15 3-3 8-13 8-16 0-4 8-14 8-17 0-4 8-14 6-15-3z" fill="#BFE4D9"/><path d="M27 55V39h10v16" fill="#D7F0E2"/></symbol>
  <symbol id="cart" viewBox="0 0 64 64"><path d="M7 12h8l6 31h29l7-23H18" fill="none" stroke="#A982E8" stroke-width="8" stroke-linecap="round" stroke-linejoin="round"/><circle cx="27" cy="54" r="5" fill="#A982E8"/><circle cx="47" cy="54" r="5" fill="#A982E8"/></symbol>
  <symbol id="spark" viewBox="0 0 64 64"><path d="M32 4 38 25l21 7-21 7-6 21-7-21L4 32l21-7z" fill="#A982E8"/><circle cx="32" cy="32" r="5" fill="#FFF5DE"/></symbol>
  <symbol id="save" viewBox="0 0 64 64"><path d="M8 8h41l7 7v41H8z" fill="#A982E8"/><path d="M17 8h28v20H17zm1 32h28v16H18z" fill="#DED5FA"/><path d="M38 9v15" stroke="#A982E8" stroke-width="5"/></symbol>
</svg>
